<svg width="246" height="178" viewBox="0 0 246 178" fill="none" xmlns="http://www.w3.org/2000/svg">
<g filter="url(#filter0_d_181_31)">
<rect x="10" y="10" width="226" height="158" rx="8" fill="white"/>
<rect x="180" y="10" width="33" height="158" fill="#EFEDFB"/>
<circle cx="197" cy="115" r="22.5" fill="black" stroke="white" stroke-width="5"/>
<path d="M197.729 124.244C196.11 124.244 194.661 123.878 193.383 123.146C192.106 122.413 191.097 121.351 190.356 119.959C189.624 118.568 189.257 116.887 189.257 114.918C189.257 112.932 189.628 111.244 190.368 109.852C191.117 108.46 192.13 107.398 193.408 106.666C194.694 105.934 196.134 105.567 197.729 105.567C199.137 105.567 200.402 105.828 201.525 106.349C202.657 106.869 203.58 107.622 204.296 108.607C205.013 109.592 205.452 110.784 205.615 112.184H201.733C201.586 111.183 201.159 110.397 200.451 109.828C199.743 109.25 198.864 108.961 197.814 108.961C196.415 108.961 195.288 109.482 194.433 110.523C193.579 111.557 193.151 113.022 193.151 114.918C193.151 116.855 193.579 118.328 194.433 119.337C195.296 120.346 196.419 120.851 197.802 120.851C198.819 120.851 199.682 120.582 200.39 120.045C201.106 119.508 201.554 118.755 201.733 117.787H205.615C205.476 118.902 205.078 119.951 204.418 120.936C203.767 121.921 202.876 122.718 201.745 123.329C200.622 123.939 199.283 124.244 197.729 124.244Z" fill="white"/>
<path d="M60 84.5C60 83.1193 61.1193 82 62.5 82H127.5C128.881 82 130 83.1193 130 84.5V84.5C130 85.8807 128.881 87 127.5 87H62.5C61.1193 87 60 85.8807 60 84.5V84.5Z" fill="#EDEDED"/>
<path d="M50 73.5C50 72.1193 51.1193 71 52.5 71H137.5C138.881 71 140 72.1193 140 73.5V73.5C140 74.8807 138.881 76 137.5 76H52.5C51.1193 76 50 74.8807 50 73.5V73.5Z" fill="#EDEDED"/>
<path d="M40 62.5C40 61.1193 41.1193 60 42.5 60H147.5C148.881 60 150 61.1193 150 62.5V62.5C150 63.8807 148.881 65 147.5 65H42.5C41.1193 65 40 63.8807 40 62.5V62.5Z" fill="#EDEDED"/>
<path d="M65 47.5C65 46.1193 66.1193 45 67.5 45H122.5C123.881 45 125 46.1193 125 47.5V47.5C125 48.8807 123.881 50 122.5 50H67.5C66.1193 50 65 48.8807 65 47.5V47.5Z" fill="#AFAFAF"/>
<rect x="115" y="125" width="39" height="5" rx="2.5" fill="#5D4BF3"/>
<rect x="36" y="125" width="39" height="5" rx="2.5" fill="#5D4BF3"/>
</g>
<defs>
<filter id="filter0_d_181_31" x="0" y="0" width="246" height="178" filterUnits="userSpaceOnUse" color-interpolation-filters="sRGB">
<feFlood flood-opacity="0" result="BackgroundImageFix"/>
<feColorMatrix in="SourceAlpha" type="matrix" values="0 0 0 0 0 0 0 0 0 0 0 0 0 0 0 0 0 0 127 0" result="hardAlpha"/>
<feOffset/>
<feGaussianBlur stdDeviation="5"/>
<feColorMatrix type="matrix" values="0 0 0 0 0 0 0 0 0 0 0 0 0 0 0 0 0 0 0.25 0"/>
<feBlend mode="normal" in2="BackgroundImageFix" result="effect1_dropShadow_181_31"/>
<feBlend mode="normal" in="SourceGraphic" in2="effect1_dropShadow_181_31" result="shape"/>
</filter>
</defs>
</svg>
